<svg version="1.1" id="Layer_1" xmlns="http://www.w3.org/2000/svg" xmlns:xlink="http://www.w3.org/1999/xlink" x="0px" y="0px"
	 width="250px" height="250px" viewBox="0 0 496 496" enable-background="new 0 0 496 496" xml:space="preserve">
<path fill="#000000" opacity="1.000000" stroke="none" 
	d="
M264.236755,179.128586 
	C283.514862,169.615707 302.459778,160.271332 320.934174,151.159042 
	C323.008240,152.023758 323.072540,153.243591 323.043427,154.400833 
	C322.838348,162.553802 323.471375,170.707901 322.504791,178.865692 
	C320.578888,195.119507 312.062103,206.742523 297.681641,213.942322 
	C274.296600,225.650452 250.737549,237.011322 227.241577,248.497543 
	C220.119980,251.978973 213.491364,256.039978 209.277008,263.087799 
	C206.601059,267.562866 204.850220,272.324463 204.600769,278.259857 
	C243.846527,258.992004 282.693298,239.920013 321.386932,220.923203 
	C322.170837,221.798065 322.562408,222.028381 322.580322,222.284805 
	C323.393402,233.915726 324.229523,245.654037 320.829010,256.956116 
	C317.041718,269.543732 308.655121,278.565369 296.828308,284.335907 
	C273.623260,295.657990 250.449081,307.044250 227.190277,318.254852 
	C218.193329,322.591309 210.744522,328.327301 206.814392,337.851013 
	C205.216980,341.721893 204.816620,345.873108 203.785446,350.792267 
	C193.817886,340.628479 187.054123,329.655243 186.792862,315.640259 
	C186.532959,301.699097 192.145874,290.126678 202.247345,280.831390 
	C201.389664,277.819824 199.308868,276.028198 197.700531,273.963684 
	C178.308670,249.071198 185.333511,218.120682 213.685532,204.019470 
	C230.391098,195.710770 247.162033,187.533478 264.236755,179.128586 
z"/>
<path fill="#000000" opacity="1.000000" stroke="none" 
	d="
M323.033508,320.000000 
	C323.034088,330.421600 323.034088,340.343170 323.034088,349.709106 
	C321.037048,351.089844 320.008575,350.377106 319.002960,349.855621 
	C305.129730,342.661591 291.264069,335.452911 277.397980,328.245087 
	C273.814514,326.382324 270.988434,323.829926 271.001221,319.483734 
	C271.010193,316.441742 272.710999,314.094910 275.432953,312.725983 
	C290.137695,305.330505 304.865662,297.981201 319.601746,290.648285 
	C320.283997,290.308777 321.120728,290.279724 323.032928,289.845581 
	C323.032928,300.068939 323.032928,309.784485 323.033508,320.000000 
z"/>
</svg>